# xmcd
#
# Track frame offsets:
#	150
#	18523
#	31857
#	46442
#	62733
#	80551
#	91370
#	106370
#	116090
#	134030
#	150782
#	163140
#
# Disc length: 2366 seconds
#
# Revision: 0
# Processed by: cddbd v1.5.2PL0 Copyright (c) Steve Scherf et al.
# Submitted via: audiograbber 1.83.01
#
DISCID=99093c0c
DTITLE=ALEJANDRO FERNANDEZ - EXITOS
DYEAR=1900
DGENRE=KARAOKE
TTITLE0=SI TU SUPIERAS
TTITLE1=MATALAS
TTITLE2=NINA AMADA MIA
TTITLE3=COMO QUIEN PIERDE UNA ESTRELLA
TTITLE4=SI HE SABIDO AMOR
TTITLE5=MONO NEGRO
TTITLE6=LOCO
TTITLE7=CASCOS LIGEROS
TTITLE8=NUBE VIAJERA
TTITLE9=CUANDO QUERIA SER GRANDE
TTITLE10=PIEL DE NINA
TTITLE11=LLORANDO PENAS
EXTD=
EXTT0=
EXTT1=
EXTT2=
EXTT3=
EXTT4=
EXTT5=
EXTT6=
EXTT7=
EXTT8=
EXTT9=
EXTT10=
EXTT11=
PLAYORDER=
